# xmcd
#
# Track frame offsets: 
#        182
#        24840
#        36645
#        57092
#        68022
#        82277
#        99622
#        117032
#        134317
#        148602
#        161500
#
# Disc length: 2445 seconds
#
# Revision: 8
# Processed by: cddbd v1.5.2PL0 Copyright (c) Steve Scherf et al.
# Submitted via: ExactAudioCopy v1.0b1
#
DISCID=94098b0b
DTITLE=Notting Hillbillies - Missing... presumed having a good time
DYEAR=1990
DGENRE=Crossover
TTITLE0=Railroad Worksong
TTITLE1=Bewildered
TTITLE2=Your Own Sweet Way
TTITLE3=Run Me Down
TTITLE4=One Way Gal
TTITLE5=Blues Stay Away from Me
TTITLE6=Will You Miss Me
TTITLE7=Please Baby
TTITLE8=Weapon of Prayer
TTITLE9=That's Where I Belong
TTITLE10=Feel Like Going Home
EXTD=Missing YEAR: 1990
EXTT0=Missing
EXTT1=Missing
EXTT2=Missing
EXTT3=Missing
EXTT4=Missing
EXTT5=Missing
EXTT6=Missing
EXTT7=Missing
EXTT8=Missing
EXTT9=Missing
EXTT10=Missing
PLAYORDER=
